<svg width="236" height="120" viewBox="0 0 236 120" fill="none" xmlns="http://www.w3.org/2000/svg">
<g clip-path="url(#clip0_1127_3886)">
<path d="M236.02 0.0825195H-0.0891113V119.789H236.02V0.0825195Z" fill="#B9E3F8"/>
<path d="M236.02 0.0825195H-0.0891113V119.789H236.02V0.0825195Z" fill="#2A9CC8" fill-opacity="0.2"/>
<path d="M216.156 55.0721C206.627 54.983 197.682 51.2235 190.965 44.4901C184.248 37.7501 180.548 28.8118 180.548 19.3223V-11.2224H149.386V19.7679H149.393C149.634 56.2109 179.241 85.7191 215.866 86.0591V86.069C215.978 86.069 216.09 86.0657 216.202 86.0657C216.305 86.0657 216.404 86.069 216.506 86.069V86.0624C253.127 85.7224 282.738 56.2109 282.979 19.7712H282.985V-11.2224H251.824V19.319C251.824 28.8085 248.123 37.7468 241.407 44.4868C234.69 51.2235 225.745 54.983 216.216 55.0721H216.212H216.159H216.156Z" fill="#46AFE6" fill-opacity="0.2"/>
<path d="M15.8433 45.2856C-25.9006 45.2856 -59.7427 79.1244 -59.7427 120.872H91.4326C91.4326 79.1277 57.5906 45.2856 15.8466 45.2856" fill="#46AFE6" fill-opacity="0.2"/>
<path d="M109.897 111.442H44.9819V119.799H109.897V111.442Z" fill="#FF8D2E"/>
<path d="M181.855 111.442H116.94V119.799H181.855V111.442Z" fill="#FF8D2E"/>
<path d="M116.944 111.442H109.824V119.799H116.944V111.442Z" fill="#DA6A0B"/>
<path d="M131.454 30.3103C133.464 30.3103 135.094 28.6804 135.094 26.6697C135.094 24.659 133.464 23.029 131.454 23.029C129.443 23.029 127.813 24.659 127.813 26.6697C127.813 28.6804 129.443 30.3103 131.454 30.3103Z" fill="white"/>
<path d="M142.244 34.5286L143.32 33.9114C144.584 33.1885 144.383 31.3071 142.993 30.8681L137.174 29.0197C136.203 28.7128 135.183 29.3366 135.018 30.34L134.071 36.0667C133.84 37.4563 135.329 38.4894 136.553 37.7897L138.431 36.7136C141.306 41.3676 142.821 46.7049 142.821 52.217C142.821 68.5093 129.566 81.7649 113.273 81.7649C96.9812 81.7649 83.7256 68.5093 83.7256 52.217C83.7256 35.9248 96.9812 22.6692 113.273 22.6692C116.577 22.6692 119.825 23.2105 122.918 24.2766C124.063 24.6727 125.314 24.0621 125.71 22.9167C126.107 21.7714 125.496 20.5204 124.351 20.1243C120.796 18.8965 117.069 18.2759 113.273 18.2759C94.5585 18.2759 79.3323 33.5021 79.3323 52.217C79.3323 70.932 94.5585 86.1581 113.273 86.1581C131.988 86.1581 147.215 70.932 147.215 52.217C147.215 45.9358 145.498 39.846 142.244 34.5286Z" fill="white"/>
<path d="M110.577 75.652C110.742 76.9954 111.857 78.0219 113.168 78.0714C114.554 78.1243 115.795 77.0746 115.97 75.652H110.573H110.577Z" fill="white"/>
<path d="M106.342 68.1825H119.947C119.947 67.3672 119.997 66.552 120.086 65.7433H106.342V68.1825Z" fill="white"/>
<path d="M106.342 71.5394C106.342 73.3581 107.814 74.8302 109.633 74.8302H116.726C118.502 74.8302 119.944 73.3878 119.944 71.612V70.5228H106.339V71.5394H106.342Z" fill="white"/>
<path d="M127.813 45.3747C127.813 37.1427 121.04 30.4885 112.765 30.6866C104.863 30.8747 98.4664 37.4002 98.4268 45.3054C98.407 49.1969 99.9022 52.7385 102.358 55.3758C104.431 57.6071 105.731 60.4193 106.174 63.4064H120.462C121.159 60.1783 122.552 57.1219 124.628 54.511C126.621 52.0025 127.813 48.8305 127.813 45.378V45.3747ZM112.138 36.1294C111.389 36.2548 107.543 37.0536 105.309 40.6811C103.414 43.754 103.833 46.8567 104.104 48.0449C104.22 48.5598 103.896 49.0715 103.384 49.187C103.315 49.2035 103.243 49.2101 103.173 49.2101C102.738 49.2101 102.341 48.9097 102.242 48.4641C101.922 47.0448 101.421 43.348 103.685 39.6777C106.286 35.4561 110.577 34.4527 111.828 34.2447C112.349 34.1589 112.841 34.5121 112.927 35.0303C113.013 35.5518 112.659 36.0436 112.141 36.1294H112.138Z" fill="white"/>
<path d="M48.319 111.442L53.1611 96.7538L113.372 107.316L174.775 96.7538L179.027 111.442H48.319Z" fill="white"/>
<path d="M188.939 27.3397L176.634 66.0602L167.728 63.2315L180.033 24.5077L188.939 27.3397Z" fill="#2A9CC8"/>
<path d="M221.751 40.0243H221.853C236.264 40.0243 247.949 51.7451 247.949 66.2054C247.949 66.2054 232.683 66.2186 221.751 66.2219V40.0243Z" fill="#2A9CC8"/>
<path d="M220.5 26.257V66.2186H211.869V26.257H220.5Z" fill="#2A9CC8"/>
<path d="M209.311 26.0656L210.964 65.9942L200.947 66.4101L199.293 26.4815L209.311 26.0656Z" fill="#FF8D2E"/>
<path d="M198.699 26.257V66.2186H188.939V26.257H198.699Z" fill="#5AC235"/>
<path d="M247.945 65.5288H167.464V72.7276H247.945V65.5288Z" fill="#FF8D2E"/>
<path d="M37.8723 14.5462L50.174 53.2667L59.0826 50.438L46.7775 11.7142L37.8723 14.5462Z" fill="#2A9CC8"/>
<path d="M5.06002 27.2307H4.9577C-9.45316 27.2307 -21.1376 38.9515 -21.1376 53.4119C-21.1376 53.4119 -5.8719 53.4251 5.06002 53.4284V27.2307Z" fill="#2A9CC8"/>
<path d="M6.30762 13.4636V53.4284H14.9389V13.4636H6.30762Z" fill="#5AC235"/>
<path d="M17.497 13.2721L15.8433 53.204L25.8642 53.6165L27.5179 13.688L17.497 13.2721Z" fill="#2A9CC8"/>
<path d="M28.1088 13.4636V53.4284H37.8722V13.4636H28.1088Z" fill="#FF8D2E"/>
<path d="M-17.1075 60.4655L63.3734 60.4655V53.2666L-17.1075 53.2666V60.4655Z" fill="#FF8D2E"/>
</g>
<defs>
<clipPath id="clip0_1127_3886">
<rect width="236" height="119.815" fill="white"/>
</clipPath>
</defs>
</svg>
